<svg width="181" height="36" viewBox="0 0 181 36" fill="none" xmlns="http://www.w3.org/2000/svg">
<path d="M0 18C0 8.05888 8.05888 0 18 0H163C172.941 0 181 8.05888 181 18V18C181 27.9411 172.941 36 163 36H18C8.05887 36 0 27.9411 0 18V18Z" fill="black"/>
<path d="M44.7129 23.2637C47.1519 23.2637 48.9023 21.8501 49.1807 19.7334V19.6821H47.3276L47.3203 19.7188C47.0493 20.8833 46.0532 21.6304 44.7129 21.6304C42.9111 21.6304 41.7905 20.1289 41.7905 17.7192V17.7046C41.7905 15.3022 42.9111 13.8008 44.7056 13.8008C46.0386 13.8008 47.0493 14.6284 47.3203 15.8809L47.3276 15.9102H49.1807V15.8516C48.9316 13.6909 47.1079 12.1675 44.7056 12.1675C41.71 12.1675 39.8569 14.2842 39.8569 17.7119V17.7266C39.8569 21.1396 41.7173 23.2637 44.7129 23.2637ZM54.5566 23.1611C56.9517 23.1611 58.4092 21.5938 58.4092 19.001V18.9863C58.4092 16.4082 56.9443 14.8408 54.5566 14.8408C52.1763 14.8408 50.7041 16.4155 50.7041 18.9863V19.001C50.7041 21.5938 52.1543 23.1611 54.5566 23.1611ZM54.5566 21.6816C53.2896 21.6816 52.5645 20.6929 52.5645 19.0083V18.9937C52.5645 17.3091 53.2896 16.313 54.5566 16.313C55.8164 16.313 56.5415 17.3091 56.5415 18.9937V19.0083C56.5415 20.6929 55.8237 21.6816 54.5566 21.6816ZM60.2402 23H62.064V18.3345C62.064 17.1333 62.7378 16.3716 63.8218 16.3716C64.9277 16.3716 65.4331 17.0015 65.4331 18.2466V23H67.2568V17.8218C67.2568 15.9175 66.2827 14.8408 64.4956 14.8408C63.3384 14.8408 62.5693 15.3608 62.1885 16.2178H62.064V14.9946H60.2402V23ZM69.4102 23H71.2339V18.3345C71.2339 17.1333 71.9077 16.3716 72.9917 16.3716C74.0977 16.3716 74.603 17.0015 74.603 18.2466V23H76.4268V17.8218C76.4268 15.9175 75.4526 14.8408 73.6655 14.8408C72.5083 14.8408 71.7393 15.3608 71.3584 16.2178H71.2339V14.9946H69.4102V23ZM82.0078 23.1611C84.1831 23.1611 85.2524 21.9087 85.5088 20.876L85.5308 20.8101H83.7949L83.7729 20.8613C83.5972 21.2275 83.0332 21.7256 82.0444 21.7256C80.8066 21.7256 80.0303 20.8906 80.0083 19.4551H85.604V18.8545C85.604 16.4375 84.1978 14.8408 81.9199 14.8408C79.6421 14.8408 78.1846 16.4888 78.1846 19.0083V19.0156C78.1846 21.5645 79.6274 23.1611 82.0078 23.1611ZM81.9419 16.269C82.96 16.269 83.6997 16.9209 83.8242 18.2319H80.0229C80.1621 16.9575 80.9238 16.269 81.9419 16.269ZM90.8628 23.1611C92.8916 23.1611 94.0708 22.0698 94.3345 20.4292L94.3491 20.3706L92.6279 20.3779L92.6133 20.4072C92.3862 21.2495 91.8076 21.6816 90.8628 21.6816C89.625 21.6816 88.8853 20.6855 88.8853 18.9863V18.9717C88.8853 17.2944 89.6177 16.313 90.8628 16.313C91.8589 16.313 92.4521 16.8696 92.6206 17.646L92.6279 17.668H94.3491V17.6387C94.144 15.9834 92.9136 14.8408 90.8555 14.8408C88.4458 14.8408 87.0322 16.3862 87.0322 18.9717V18.9863C87.0322 21.6011 88.4531 23.1611 90.8628 23.1611ZM99.3369 23.0366C99.6885 23.0366 100.025 23.0073 100.289 22.9561V21.5498C100.069 21.5718 99.9302 21.5791 99.6738 21.5791C98.9121 21.5791 98.5972 21.2422 98.5972 20.4438V16.4082H100.289V14.9946H98.5972V13.0317H96.7441V14.9946H95.499V16.4082H96.7441V20.876C96.7441 22.4214 97.4985 23.0366 99.3369 23.0366ZM109.964 23.2637C112.499 23.2637 114.088 21.9746 114.088 19.9165V19.9092C114.088 18.3125 113.158 17.4189 110.931 16.9502L109.796 16.7085C108.478 16.4302 107.943 15.9614 107.943 15.2144V15.207C107.943 14.3062 108.778 13.7568 109.95 13.7568C111.158 13.7495 111.942 14.3354 112.074 15.1558L112.088 15.2437H113.897L113.89 15.1484C113.758 13.4492 112.301 12.1675 109.957 12.1675C107.672 12.1675 106.046 13.4419 106.046 15.3315V15.3389C106.046 16.9136 106.983 17.9243 109.144 18.3784L110.279 18.6128C111.642 18.9058 112.191 19.3672 112.191 20.1289V20.1362C112.191 21.0444 111.297 21.6743 110.023 21.6743C108.683 21.6743 107.738 21.0884 107.65 20.2021L107.643 20.1289H105.812L105.819 20.2314C105.951 22.0552 107.511 23.2637 109.964 23.2637ZM118.131 23.1318C119.186 23.1318 120.035 22.6777 120.475 21.9014H120.599V23H122.401V17.5288C122.401 15.8369 121.244 14.8408 119.186 14.8408C117.281 14.8408 115.992 15.7344 115.816 17.082L115.809 17.1479H117.53L117.538 17.1187C117.721 16.5913 118.263 16.291 119.098 16.291C120.079 16.291 120.599 16.7305 120.599 17.5288V18.2173L118.541 18.3418C116.593 18.459 115.501 19.2939 115.501 20.7222V20.7368C115.501 22.1943 116.607 23.1318 118.131 23.1318ZM117.303 20.6489V20.6343C117.303 19.9751 117.779 19.6016 118.797 19.5356L120.599 19.4185V20.063C120.599 21.0151 119.786 21.7329 118.688 21.7329C117.882 21.7329 117.303 21.3301 117.303 20.6489ZM124.591 23H126.415V18.3345C126.415 17.1333 127.088 16.3716 128.172 16.3716C129.278 16.3716 129.784 17.0015 129.784 18.2466V23H131.607V17.8218C131.607 15.9175 130.633 14.8408 128.846 14.8408C127.689 14.8408 126.92 15.3608 126.539 16.2178H126.415V14.9946H124.591V23ZM136.646 23.1318C137.774 23.1318 138.639 22.6191 139.078 21.7476H139.203V23H141.034V11.8965H139.203V16.269H139.078C138.661 15.4048 137.745 14.8628 136.646 14.8628C134.618 14.8628 133.365 16.4448 133.365 18.9937V19.0083C133.365 21.5425 134.64 23.1318 136.646 23.1318ZM137.218 21.5938C135.973 21.5938 135.218 20.6196 135.218 19.0083V18.9937C135.218 17.3823 135.98 16.4009 137.218 16.4009C138.456 16.4009 139.232 17.3896 139.232 18.9937V19.0083C139.232 20.6123 138.463 21.5938 137.218 21.5938ZM147.779 23.1318C149.786 23.1318 151.068 21.5425 151.068 19.0083V18.9937C151.068 16.4448 149.808 14.8628 147.779 14.8628C146.681 14.8628 145.765 15.4048 145.348 16.269H145.223V11.8965H143.399V23H145.223V21.7476H145.348C145.787 22.6191 146.659 23.1318 147.779 23.1318ZM147.208 21.5938C145.97 21.5938 145.201 20.6123 145.201 19.0083V18.9937C145.201 17.3896 145.97 16.4009 147.208 16.4009C148.453 16.4009 149.208 17.3823 149.208 18.9937V19.0083C149.208 20.6196 148.453 21.5938 147.208 21.5938ZM156.349 23.1611C158.744 23.1611 160.201 21.5938 160.201 19.001V18.9863C160.201 16.4082 158.736 14.8408 156.349 14.8408C153.968 14.8408 152.496 16.4155 152.496 18.9863V19.001C152.496 21.5938 153.946 23.1611 156.349 23.1611ZM156.349 21.6816C155.082 21.6816 154.356 20.6929 154.356 19.0083V18.9937C154.356 17.3091 155.082 16.313 156.349 16.313C157.608 16.313 158.333 17.3091 158.333 18.9937V19.0083C158.333 20.6929 157.616 21.6816 156.349 21.6816ZM161.014 23H162.977L164.61 20.2168H164.735L166.375 23H168.426L165.812 18.9497L168.397 14.9946H166.397L164.815 17.7705H164.691L163.102 14.9946H160.992L163.607 19.0303L161.014 23Z" fill="white"/>
<mask id="mask0_4_1132" style="mask-type:alpha" maskUnits="userSpaceOnUse" x="12" y="9" width="20" height="18">
<path d="M18.652 9.02441C18.687 9.00833 18.7251 9 18.7636 9H24.9014C24.9399 9 24.978 9.00833 25.0131 9.02441L29.7061 10.9308C29.7546 10.9531 29.7956 10.989 29.8239 11.0343L31.6215 14.7644C31.6859 14.8671 31.6782 14.9994 31.6022 15.094L22.0428 26.8988C21.9917 26.9628 21.9144 27 21.8326 27C21.7508 27 21.6734 26.9628 21.6223 26.8988L12.0628 15.094C11.9868 14.9995 11.9791 14.8671 12.0436 14.7644L13.8412 11.0251C13.8696 10.9799 13.9105 10.944 13.9589 10.9216L18.652 9.02441Z" fill="white"/>
</mask>
<g mask="url(#mask0_4_1132)">
<path d="M31.6645 13.3442H21.832V26.9288H31.6645V13.3442Z" fill="#E37815"/>
<path d="M21.8325 13.3442H12V26.9288H21.8325V13.3442Z" fill="#E89518"/>
<path d="M31.6646 9.00012H12V14.1719H31.6646V9.00012Z" fill="#FFB82F"/>
<path d="M21.8327 12.5721L25.5874 17.1463H18.1284L21.8327 12.5721Z" fill="#F5AD41"/>
<path d="M21.8324 29.6182L25.5874 17.1465H18.1284L21.8324 29.6182Z" fill="#FFBF57"/>
<path d="M21.833 12.5721L14.5332 11.7238L18.1287 17.1464L21.833 12.5721Z" fill="#FFD592"/>
<path d="M12 14.8613L14.5329 11.7238L18.1283 17.1464L12 14.8613Z" fill="#F8B64B"/>
<path d="M12 14.8613L14.5329 11.7237L13.9165 10.9308C13.4969 10.9845 12.7648 13.0445 12 14.8613Z" fill="#DD9B30"/>
<path d="M21.8325 12.5721L29.0054 11.7238L25.5872 17.1464L21.8325 12.5721Z" fill="#EE8525"/>
<path d="M31.6647 14.8615L29.0058 11.7239L25.5874 17.1465L31.6647 14.8615Z" fill="#FFBD52"/>
<path d="M31.6648 14.8613L29.0059 11.7237L29.706 10.9308C30.2957 11.3116 31.0823 13.2267 31.6648 14.8613Z" fill="#ED7632"/>
<path d="M16.8358 15.3093C16.8173 15.2636 16.8865 15.2158 16.9211 15.2504C17.2544 15.583 17.9337 16.2005 18.4217 16.2434C18.9007 16.2856 19.7219 15.8203 20.1515 15.5514C20.1938 15.525 20.254 15.593 20.2242 15.6334C19.9673 15.9823 19.5581 16.6154 19.5104 17.1628C19.4592 17.7511 19.7958 18.5799 19.9807 18.9836C20.001 19.0278 19.938 19.0757 19.9021 19.0435C19.5431 18.7219 18.7672 18.0778 18.2659 18.0337C17.7605 17.9893 16.9479 18.5028 16.5786 18.758C16.5396 18.785 16.4848 18.7329 16.5088 18.6916C16.722 18.3247 17.14 17.5411 17.1907 16.9589C17.2385 16.4098 16.9899 15.6919 16.8358 15.3093Z" fill="white"/>
</g>
</svg>
