<svg width="260" height="48" viewBox="0 0 260 48" fill="none" xmlns="http://www.w3.org/2000/svg">
<path d="M0 24C0 10.7452 10.7452 0 24 0H236C249.255 0 260 10.7452 260 24V24C260 37.2548 249.255 48 236 48H24C10.7452 48 0 37.2548 0 24V24Z" fill="white"/>
<path d="M78.4746 30.2988C81.2388 30.2988 83.2227 28.6968 83.5381 26.2979V26.2397H81.438L81.4297 26.2812C81.1226 27.6011 79.9937 28.4478 78.4746 28.4478C76.4326 28.4478 75.1626 26.7461 75.1626 24.0151V23.9985C75.1626 21.2759 76.4326 19.5742 78.4663 19.5742C79.9771 19.5742 81.1226 20.5122 81.4297 21.9316L81.438 21.9648H83.5381V21.8984C83.2559 19.4497 81.189 17.7231 78.4663 17.7231C75.0713 17.7231 72.9712 20.1221 72.9712 24.0068V24.0234C72.9712 27.8916 75.0796 30.2988 78.4746 30.2988ZM89.6309 30.1826C92.3452 30.1826 93.9971 28.4062 93.9971 25.4678V25.4512C93.9971 22.5293 92.3369 20.7529 89.6309 20.7529C86.9331 20.7529 85.2646 22.5376 85.2646 25.4512V25.4678C85.2646 28.4062 86.9082 30.1826 89.6309 30.1826ZM89.6309 28.5059C88.1948 28.5059 87.373 27.3853 87.373 25.4761V25.4595C87.373 23.5503 88.1948 22.4214 89.6309 22.4214C91.0586 22.4214 91.8804 23.5503 91.8804 25.4595V25.4761C91.8804 27.3853 91.0669 28.5059 89.6309 28.5059ZM96.0723 30H98.1392V24.7124C98.1392 23.3511 98.9028 22.4878 100.131 22.4878C101.385 22.4878 101.958 23.2017 101.958 24.6128V30H104.024V24.1313C104.024 21.9731 102.92 20.7529 100.895 20.7529C99.5835 20.7529 98.7119 21.3423 98.2803 22.3135H98.1392V20.9272H96.0723V30ZM106.465 30H108.532V24.7124C108.532 23.3511 109.295 22.4878 110.524 22.4878C111.777 22.4878 112.35 23.2017 112.35 24.6128V30H114.417V24.1313C114.417 21.9731 113.313 20.7529 111.288 20.7529C109.976 20.7529 109.104 21.3423 108.673 22.3135H108.532V20.9272H106.465V30ZM120.742 30.1826C123.208 30.1826 124.419 28.7632 124.71 27.5928L124.735 27.5181H122.768L122.743 27.5762C122.543 27.9912 121.904 28.5557 120.784 28.5557C119.381 28.5557 118.501 27.6094 118.476 25.9824H124.818V25.3018C124.818 22.5625 123.224 20.7529 120.643 20.7529C118.061 20.7529 116.409 22.6206 116.409 25.4761V25.4844C116.409 28.373 118.044 30.1826 120.742 30.1826ZM120.667 22.3716C121.821 22.3716 122.66 23.1104 122.801 24.5962H118.493C118.65 23.1519 119.514 22.3716 120.667 22.3716ZM130.778 30.1826C133.077 30.1826 134.414 28.9458 134.712 27.0864L134.729 27.02L132.778 27.0283L132.762 27.0615C132.504 28.0161 131.849 28.5059 130.778 28.5059C129.375 28.5059 128.537 27.377 128.537 25.4512V25.4346C128.537 23.5337 129.367 22.4214 130.778 22.4214C131.907 22.4214 132.579 23.0522 132.77 23.9321L132.778 23.957H134.729V23.9238C134.497 22.0479 133.102 20.7529 130.77 20.7529C128.039 20.7529 126.437 22.5044 126.437 25.4346V25.4512C126.437 28.4146 128.047 30.1826 130.778 30.1826ZM140.382 30.0415C140.78 30.0415 141.162 30.0083 141.461 29.9502V28.3564C141.212 28.3813 141.054 28.3896 140.764 28.3896C139.9 28.3896 139.543 28.0078 139.543 27.103V22.5293H141.461V20.9272H139.543V18.7026H137.443V20.9272H136.032V22.5293H137.443V27.5928C137.443 29.3442 138.298 30.0415 140.382 30.0415ZM152.426 30.2988C155.298 30.2988 157.1 28.8379 157.1 26.5054V26.4971C157.1 24.6875 156.045 23.6748 153.522 23.1436L152.235 22.8696C150.741 22.5542 150.135 22.0229 150.135 21.1763V21.168C150.135 20.147 151.082 19.5244 152.41 19.5244C153.779 19.5161 154.667 20.1802 154.817 21.1099L154.833 21.2095H156.884L156.875 21.1016C156.726 19.1758 155.074 17.7231 152.418 17.7231C149.828 17.7231 147.985 19.1675 147.985 21.3091V21.3174C147.985 23.1021 149.048 24.2476 151.497 24.7622L152.783 25.0278C154.327 25.3599 154.95 25.8828 154.95 26.7461V26.7544C154.95 27.7837 153.937 28.4976 152.493 28.4976C150.974 28.4976 149.903 27.8335 149.803 26.8291L149.795 26.7461H147.72L147.728 26.8623C147.877 28.9292 149.646 30.2988 152.426 30.2988ZM161.682 30.1494C162.877 30.1494 163.84 29.6348 164.338 28.7549H164.479V30H166.521V23.7993C166.521 21.8818 165.209 20.7529 162.877 20.7529C160.719 20.7529 159.258 21.7656 159.059 23.293L159.05 23.3677H161.001L161.009 23.3345C161.217 22.7368 161.831 22.3965 162.777 22.3965C163.89 22.3965 164.479 22.8945 164.479 23.7993V24.5796L162.146 24.7207C159.938 24.8535 158.702 25.7998 158.702 27.4185V27.4351C158.702 29.0869 159.955 30.1494 161.682 30.1494ZM160.744 27.3354V27.3188C160.744 26.5718 161.283 26.1484 162.437 26.0737L164.479 25.9409V26.6714C164.479 27.7505 163.558 28.564 162.312 28.564C161.399 28.564 160.744 28.1074 160.744 27.3354ZM169.003 30H171.07V24.7124C171.07 23.3511 171.833 22.4878 173.062 22.4878C174.315 22.4878 174.888 23.2017 174.888 24.6128V30H176.955V24.1313C176.955 21.9731 175.851 20.7529 173.826 20.7529C172.514 20.7529 171.643 21.3423 171.211 22.3135H171.07V20.9272H169.003V30ZM182.666 30.1494C183.944 30.1494 184.924 29.5684 185.422 28.5806H185.563V30H187.638V17.416H185.563V22.3716H185.422C184.949 21.3921 183.911 20.7778 182.666 20.7778C180.367 20.7778 178.947 22.5708 178.947 25.4595V25.4761C178.947 28.3481 180.392 30.1494 182.666 30.1494ZM183.313 28.4062C181.902 28.4062 181.047 27.3022 181.047 25.4761V25.4595C181.047 23.6333 181.911 22.521 183.313 22.521C184.716 22.521 185.596 23.6416 185.596 25.4595V25.4761C185.596 27.2939 184.725 28.4062 183.313 28.4062ZM195.283 30.1494C197.558 30.1494 199.01 28.3481 199.01 25.4761V25.4595C199.01 22.5708 197.583 20.7778 195.283 20.7778C194.038 20.7778 193 21.3921 192.527 22.3716H192.386V17.416H190.319V30H192.386V28.5806H192.527C193.025 29.5684 194.013 30.1494 195.283 30.1494ZM194.636 28.4062C193.233 28.4062 192.361 27.2939 192.361 25.4761V25.4595C192.361 23.6416 193.233 22.521 194.636 22.521C196.047 22.521 196.902 23.6333 196.902 25.4595V25.4761C196.902 27.3022 196.047 28.4062 194.636 28.4062ZM204.995 30.1826C207.709 30.1826 209.361 28.4062 209.361 25.4678V25.4512C209.361 22.5293 207.701 20.7529 204.995 20.7529C202.297 20.7529 200.629 22.5376 200.629 25.4512V25.4678C200.629 28.4062 202.272 30.1826 204.995 30.1826ZM204.995 28.5059C203.559 28.5059 202.737 27.3853 202.737 25.4761V25.4595C202.737 23.5503 203.559 22.4214 204.995 22.4214C206.423 22.4214 207.245 23.5503 207.245 25.4595V25.4761C207.245 27.3853 206.431 28.5059 204.995 28.5059ZM210.283 30H212.507L214.358 26.8457H214.5L216.359 30H218.683L215.72 25.4097L218.65 20.9272H216.384L214.591 24.0732H214.45L212.648 20.9272H210.258L213.221 25.501L210.283 30Z" fill="black"/>
<mask id="mask0_4_1021" style="mask-type:alpha" maskUnits="userSpaceOnUse" x="40" y="13" width="25" height="22">
<path d="M48.1302 13.0298C48.173 13.0102 48.2195 13 48.2666 13H55.7683C55.8155 13 55.862 13.0102 55.9049 13.0298L61.6408 15.3599C61.7001 15.3871 61.7501 15.4311 61.7848 15.4864L63.9818 20.0453C64.0606 20.1709 64.0511 20.3326 63.9583 20.4482L52.2745 34.8764C52.2121 34.9545 52.1175 35 52.0176 35C51.9176 35 51.823 34.9545 51.7606 34.8764L40.0767 20.4482C39.9838 20.3327 39.9744 20.1709 40.0532 20.0453L42.2503 15.4751C42.285 15.4199 42.335 15.376 42.3943 15.3487L48.1302 13.0298Z" fill="white"/>
</mask>
<g mask="url(#mask0_4_1021)">
<path d="M64.0346 18.3097H52.0171V34.913H64.0346V18.3097Z" fill="#E37815"/>
<path d="M52.0175 18.3097H40V34.913H52.0175V18.3097Z" fill="#E89518"/>
<path d="M64.035 13.0001H40.0005V19.3211H64.035V13.0001Z" fill="#FFB82F"/>
<path d="M52.0181 17.366L56.6072 22.9566H47.4907L52.0181 17.366Z" fill="#F5AD41"/>
<path d="M52.0178 38.2L56.6072 22.9568H47.4907L52.0178 38.2Z" fill="#FFBF57"/>
<path d="M52.0182 17.366L43.0962 16.3291L47.4907 22.9568L52.0182 17.366Z" fill="#FFD592"/>
<path d="M40 20.1639L43.0957 16.3291L47.4902 22.9568L40 20.1639Z" fill="#F8B64B"/>
<path d="M40 20.1639L43.0957 16.329L42.3424 15.3599C41.8295 15.4255 40.9347 17.9433 40 20.1639Z" fill="#DD9B30"/>
<path d="M52.0176 17.366L60.7845 16.3291L56.6066 22.9568L52.0176 17.366Z" fill="#EE8525"/>
<path d="M64.0352 20.164L60.7854 16.3291L56.6074 22.9568L64.0352 20.164Z" fill="#FFBD52"/>
<path d="M64.035 20.1639L60.7852 16.329L61.6409 15.3599C62.3616 15.8252 63.323 18.166 64.035 20.1639Z" fill="#ED7632"/>
<path d="M45.9102 20.7113C45.8877 20.6555 45.9722 20.5971 46.0146 20.6394C46.4219 21.0459 47.2522 21.8006 47.8486 21.8531C48.4341 21.9046 49.4378 21.336 49.9628 21.0073C50.0145 20.975 50.088 21.0581 50.0516 21.1075C49.7377 21.534 49.2376 22.3077 49.1793 22.9768C49.1167 23.6958 49.528 24.7088 49.754 25.2022C49.7788 25.2562 49.7018 25.3148 49.6579 25.2754C49.2192 24.8823 48.2709 24.0951 47.6581 24.0413C47.0405 23.9869 46.0472 24.6145 45.5959 24.9265C45.5482 24.9595 45.4812 24.8958 45.5106 24.8453C45.7712 24.3969 46.2821 23.4391 46.344 22.7276C46.4025 22.0564 46.0986 21.179 45.9102 20.7113Z" fill="white"/>
</g>
</svg>
