<svg width="172" height="36" viewBox="0 0 172 36" fill="none" xmlns="http://www.w3.org/2000/svg">
<path d="M0 18C0 8.05888 8.05888 0 18 0H154C163.941 0 172 8.05888 172 18V18C172 27.9411 163.941 36 154 36H18C8.05887 36 0 27.9411 0 18V18Z" fill="black"/>
<path d="M44.7129 23.2637C47.1519 23.2637 48.9023 21.8501 49.1807 19.7334V19.6821H47.3276L47.3203 19.7188C47.0493 20.8833 46.0532 21.6304 44.7129 21.6304C42.9111 21.6304 41.7905 20.1289 41.7905 17.7192V17.7046C41.7905 15.3022 42.9111 13.8008 44.7056 13.8008C46.0386 13.8008 47.0493 14.6284 47.3203 15.8809L47.3276 15.9102H49.1807V15.8516C48.9316 13.6909 47.1079 12.1675 44.7056 12.1675C41.71 12.1675 39.8569 14.2842 39.8569 17.7119V17.7266C39.8569 21.1396 41.7173 23.2637 44.7129 23.2637ZM54.5566 23.1611C56.9517 23.1611 58.4092 21.5938 58.4092 19.001V18.9863C58.4092 16.4082 56.9443 14.8408 54.5566 14.8408C52.1763 14.8408 50.7041 16.4155 50.7041 18.9863V19.001C50.7041 21.5938 52.1543 23.1611 54.5566 23.1611ZM54.5566 21.6816C53.2896 21.6816 52.5645 20.6929 52.5645 19.0083V18.9937C52.5645 17.3091 53.2896 16.313 54.5566 16.313C55.8164 16.313 56.5415 17.3091 56.5415 18.9937V19.0083C56.5415 20.6929 55.8237 21.6816 54.5566 21.6816ZM60.2402 23H62.064V18.3345C62.064 17.1333 62.7378 16.3716 63.8218 16.3716C64.9277 16.3716 65.4331 17.0015 65.4331 18.2466V23H67.2568V17.8218C67.2568 15.9175 66.2827 14.8408 64.4956 14.8408C63.3384 14.8408 62.5693 15.3608 62.1885 16.2178H62.064V14.9946H60.2402V23ZM69.4102 23H71.2339V18.3345C71.2339 17.1333 71.9077 16.3716 72.9917 16.3716C74.0977 16.3716 74.603 17.0015 74.603 18.2466V23H76.4268V17.8218C76.4268 15.9175 75.4526 14.8408 73.6655 14.8408C72.5083 14.8408 71.7393 15.3608 71.3584 16.2178H71.2339V14.9946H69.4102V23ZM82.0078 23.1611C84.1831 23.1611 85.2524 21.9087 85.5088 20.876L85.5308 20.8101H83.7949L83.7729 20.8613C83.5972 21.2275 83.0332 21.7256 82.0444 21.7256C80.8066 21.7256 80.0303 20.8906 80.0083 19.4551H85.604V18.8545C85.604 16.4375 84.1978 14.8408 81.9199 14.8408C79.6421 14.8408 78.1846 16.4888 78.1846 19.0083V19.0156C78.1846 21.5645 79.6274 23.1611 82.0078 23.1611ZM81.9419 16.269C82.96 16.269 83.6997 16.9209 83.8242 18.2319H80.0229C80.1621 16.9575 80.9238 16.269 81.9419 16.269ZM90.8628 23.1611C92.8916 23.1611 94.0708 22.0698 94.3345 20.4292L94.3491 20.3706L92.6279 20.3779L92.6133 20.4072C92.3862 21.2495 91.8076 21.6816 90.8628 21.6816C89.625 21.6816 88.8853 20.6855 88.8853 18.9863V18.9717C88.8853 17.2944 89.6177 16.313 90.8628 16.313C91.8589 16.313 92.4521 16.8696 92.6206 17.646L92.6279 17.668H94.3491V17.6387C94.144 15.9834 92.9136 14.8408 90.8555 14.8408C88.4458 14.8408 87.0322 16.3862 87.0322 18.9717V18.9863C87.0322 21.6011 88.4531 23.1611 90.8628 23.1611ZM99.3369 23.0366C99.6885 23.0366 100.025 23.0073 100.289 22.9561V21.5498C100.069 21.5718 99.9302 21.5791 99.6738 21.5791C98.9121 21.5791 98.5972 21.2422 98.5972 20.4438V16.4082H100.289V14.9946H98.5972V13.0317H96.7441V14.9946H95.499V16.4082H96.7441V20.876C96.7441 22.4214 97.4985 23.0366 99.3369 23.0366ZM108.924 23H110.814V14.0205H114.073V12.4312H105.672V14.0205H108.924V23ZM117.896 23.1611C120.292 23.1611 121.749 21.5938 121.749 19.001V18.9863C121.749 16.4082 120.284 14.8408 117.896 14.8408C115.516 14.8408 114.044 16.4155 114.044 18.9863V19.001C114.044 21.5938 115.494 23.1611 117.896 23.1611ZM117.896 21.6816C116.629 21.6816 115.904 20.6929 115.904 19.0083V18.9937C115.904 17.3091 116.629 16.313 117.896 16.313C119.156 16.313 119.881 17.3091 119.881 18.9937V19.0083C119.881 20.6929 119.164 21.6816 117.896 21.6816ZM123.58 23H125.404V18.3345C125.404 17.1333 126.078 16.3716 127.162 16.3716C128.268 16.3716 128.773 17.0015 128.773 18.2466V23H130.597V17.8218C130.597 15.9175 129.623 14.8408 127.835 14.8408C126.678 14.8408 125.909 15.3608 125.528 16.2178H125.404V14.9946H123.58V23ZM132.823 23H134.647V18.3345C134.647 17.1333 135.321 16.3716 136.405 16.3716C137.511 16.3716 138.016 17.0015 138.016 18.2466V23H139.84V17.8218C139.84 15.9175 138.866 14.8408 137.079 14.8408C135.921 14.8408 135.152 15.3608 134.771 16.2178H134.647V11.8965H132.823V23ZM144.645 23.1611C145.802 23.1611 146.615 22.6411 146.988 21.7842H147.113V23H148.937V14.9946H147.113V19.6602C147.113 20.8613 146.483 21.623 145.304 21.623C144.205 21.623 143.744 20.9932 143.744 19.7554V14.9946H141.92V20.1729C141.92 22.0771 142.843 23.1611 144.645 23.1611ZM155.616 23.1318C157.623 23.1318 158.905 21.5425 158.905 19.0083V18.9937C158.905 16.4448 157.645 14.8628 155.616 14.8628C154.518 14.8628 153.602 15.4048 153.185 16.269H153.06V11.8965H151.236V23H153.06V21.7476H153.185C153.624 22.6191 154.496 23.1318 155.616 23.1318ZM155.045 21.5938C153.807 21.5938 153.038 20.6123 153.038 19.0083V18.9937C153.038 17.3896 153.807 16.4009 155.045 16.4009C156.29 16.4009 157.044 17.3823 157.044 18.9937V19.0083C157.044 20.6196 156.29 21.5938 155.045 21.5938Z" fill="white"/>
<g filter="url(#filter0_d_4_1152)">
<mask id="mask0_4_1152" style="mask-type:alpha" maskUnits="userSpaceOnUse" x="12" y="9" width="20" height="18">
<path d="M18.652 9.02441C18.687 9.00833 18.7251 9 18.7636 9H24.9014C24.9399 9 24.978 9.00833 25.0131 9.02441L29.7061 10.9308C29.7546 10.9531 29.7956 10.989 29.8239 11.0343L31.6215 14.7644C31.6859 14.8671 31.6782 14.9994 31.6022 15.094L22.0428 26.8988C21.9917 26.9628 21.9144 27 21.8326 27C21.7507 27 21.6734 26.9628 21.6223 26.8988L12.0628 15.094C11.9868 14.9995 11.9791 14.8671 12.0436 14.7644L13.8412 11.0251C13.8696 10.9799 13.9105 10.944 13.9589 10.9216L18.652 9.02441Z" fill="white"/>
</mask>
<g mask="url(#mask0_4_1152)">
<path d="M31.6645 13.3444H21.832V26.9289H31.6645V13.3444Z" fill="#2A92F2"/>
<path d="M21.8325 13.3444H12V26.9289H21.8325V13.3444Z" fill="#4795F1"/>
<path d="M31.6646 9H12V14.1718H31.6646V9Z" fill="#86C5FF"/>
<path d="M21.8327 12.5721L25.5874 17.1463H18.1284L21.8327 12.5721Z" fill="#8BC0FF"/>
<path d="M21.8324 29.6182L25.5874 17.1465H18.1284L21.8324 29.6182Z" fill="#ADD3FF"/>
<path d="M21.833 12.5721L14.5332 11.7238L18.1287 17.1464L21.833 12.5721Z" fill="#D3E0FF"/>
<path d="M12 14.8613L14.5329 11.7238L18.1283 17.1464L12 14.8613Z" fill="#9FBAFF"/>
<path d="M12 14.8613L14.5329 11.7237L13.9165 10.9308C13.4969 10.9845 12.7648 13.0445 12 14.8613Z" fill="#7498F8"/>
<path d="M21.8325 12.5721L29.0054 11.7238L25.5872 17.1464L21.8325 12.5721Z" fill="#4C99F3"/>
<path d="M31.6647 14.8615L29.0058 11.7239L25.5874 17.1465L31.6647 14.8615Z" fill="#96C7FF"/>
<path d="M31.6648 14.8613L29.0059 11.7237L29.706 10.9308C30.2957 11.3116 31.0823 13.2267 31.6648 14.8613Z" fill="#4481FD"/>
<path d="M16.8358 15.3095C16.8173 15.2638 16.8865 15.216 16.9211 15.2506C17.2544 15.5832 17.9337 16.2008 18.4217 16.2437C18.9007 16.2858 19.7219 15.8206 20.1515 15.5517C20.1938 15.5252 20.254 15.5932 20.2242 15.6336C19.9673 15.9826 19.5581 16.6156 19.5104 17.1631C19.4592 17.7513 19.7958 18.5802 19.9807 18.9838C20.001 19.0281 19.938 19.0759 19.9021 19.0437C19.5431 18.7221 18.7672 18.0781 18.2659 18.034C17.7605 17.9895 16.9479 18.503 16.5786 18.7583C16.5396 18.7852 16.4848 18.7331 16.5088 18.6918C16.722 18.325 17.14 17.5414 17.1907 16.9592C17.2385 16.4101 16.9899 15.6922 16.8358 15.3095Z" fill="white"/>
</g>
</g>
<defs>
<filter id="filter0_d_4_1152" x="-128" y="-128" width="299.665" height="298" filterUnits="userSpaceOnUse" color-interpolation-filters="sRGB">
<feFlood flood-opacity="0" result="BackgroundImageFix"/>
<feColorMatrix in="SourceAlpha" type="matrix" values="0 0 0 0 0 0 0 0 0 0 0 0 0 0 0 0 0 0 127 0" result="hardAlpha"/>
<feOffset dy="3"/>
<feGaussianBlur stdDeviation="70"/>
<feColorMatrix type="matrix" values="0 0 0 0 0 0 0 0 0 0 0 0 0 0 0 0 0 0 0.5 0"/>
<feBlend mode="normal" in2="BackgroundImageFix" result="effect1_dropShadow_4_1152"/>
<feBlend mode="normal" in="SourceGraphic" in2="effect1_dropShadow_4_1152" result="shape"/>
</filter>
</defs>
</svg>
