<svg width="249" height="48" viewBox="0 0 249 48" fill="none" xmlns="http://www.w3.org/2000/svg">
<path d="M0 24C0 10.7452 10.7452 0 24 0H225C238.255 0 249 10.7452 249 24V24C249 37.2548 238.255 48 225 48H24C10.7452 48 0 37.2548 0 24V24Z" fill="white"/>
<path d="M78.4746 30.2988C81.2388 30.2988 83.2227 28.6968 83.5381 26.2979V26.2397H81.438L81.4297 26.2812C81.1226 27.6011 79.9937 28.4478 78.4746 28.4478C76.4326 28.4478 75.1626 26.7461 75.1626 24.0151V23.9985C75.1626 21.2759 76.4326 19.5742 78.4663 19.5742C79.9771 19.5742 81.1226 20.5122 81.4297 21.9316L81.438 21.9648H83.5381V21.8984C83.2559 19.4497 81.189 17.7231 78.4663 17.7231C75.0713 17.7231 72.9712 20.1221 72.9712 24.0068V24.0234C72.9712 27.8916 75.0796 30.2988 78.4746 30.2988ZM89.6309 30.1826C92.3452 30.1826 93.9971 28.4062 93.9971 25.4678V25.4512C93.9971 22.5293 92.3369 20.7529 89.6309 20.7529C86.9331 20.7529 85.2646 22.5376 85.2646 25.4512V25.4678C85.2646 28.4062 86.9082 30.1826 89.6309 30.1826ZM89.6309 28.5059C88.1948 28.5059 87.373 27.3853 87.373 25.4761V25.4595C87.373 23.5503 88.1948 22.4214 89.6309 22.4214C91.0586 22.4214 91.8804 23.5503 91.8804 25.4595V25.4761C91.8804 27.3853 91.0669 28.5059 89.6309 28.5059ZM96.0723 30H98.1392V24.7124C98.1392 23.3511 98.9028 22.4878 100.131 22.4878C101.385 22.4878 101.958 23.2017 101.958 24.6128V30H104.024V24.1313C104.024 21.9731 102.92 20.7529 100.895 20.7529C99.5835 20.7529 98.7119 21.3423 98.2803 22.3135H98.1392V20.9272H96.0723V30ZM106.465 30H108.532V24.7124C108.532 23.3511 109.295 22.4878 110.524 22.4878C111.777 22.4878 112.35 23.2017 112.35 24.6128V30H114.417V24.1313C114.417 21.9731 113.313 20.7529 111.288 20.7529C109.976 20.7529 109.104 21.3423 108.673 22.3135H108.532V20.9272H106.465V30ZM120.742 30.1826C123.208 30.1826 124.419 28.7632 124.71 27.5928L124.735 27.5181H122.768L122.743 27.5762C122.543 27.9912 121.904 28.5557 120.784 28.5557C119.381 28.5557 118.501 27.6094 118.476 25.9824H124.818V25.3018C124.818 22.5625 123.224 20.7529 120.643 20.7529C118.061 20.7529 116.409 22.6206 116.409 25.4761V25.4844C116.409 28.373 118.044 30.1826 120.742 30.1826ZM120.667 22.3716C121.821 22.3716 122.66 23.1104 122.801 24.5962H118.493C118.65 23.1519 119.514 22.3716 120.667 22.3716ZM130.778 30.1826C133.077 30.1826 134.414 28.9458 134.712 27.0864L134.729 27.02L132.778 27.0283L132.762 27.0615C132.504 28.0161 131.849 28.5059 130.778 28.5059C129.375 28.5059 128.537 27.377 128.537 25.4512V25.4346C128.537 23.5337 129.367 22.4214 130.778 22.4214C131.907 22.4214 132.579 23.0522 132.77 23.9321L132.778 23.957H134.729V23.9238C134.497 22.0479 133.102 20.7529 130.77 20.7529C128.039 20.7529 126.437 22.5044 126.437 25.4346V25.4512C126.437 28.4146 128.047 30.1826 130.778 30.1826ZM140.382 30.0415C140.78 30.0415 141.162 30.0083 141.461 29.9502V28.3564C141.212 28.3813 141.054 28.3896 140.764 28.3896C139.9 28.3896 139.543 28.0078 139.543 27.103V22.5293H141.461V20.9272H139.543V18.7026H137.443V20.9272H136.032V22.5293H137.443V27.5928C137.443 29.3442 138.298 30.0415 140.382 30.0415ZM151.248 30H153.389V19.8232H157.083V18.022H147.562V19.8232H151.248V30ZM161.416 30.1826C164.13 30.1826 165.782 28.4062 165.782 25.4678V25.4512C165.782 22.5293 164.122 20.7529 161.416 20.7529C158.718 20.7529 157.05 22.5376 157.05 25.4512V25.4678C157.05 28.4062 158.693 30.1826 161.416 30.1826ZM161.416 28.5059C159.98 28.5059 159.158 27.3853 159.158 25.4761V25.4595C159.158 23.5503 159.98 22.4214 161.416 22.4214C162.844 22.4214 163.666 23.5503 163.666 25.4595V25.4761C163.666 27.3853 162.852 28.5059 161.416 28.5059ZM167.857 30H169.924V24.7124C169.924 23.3511 170.688 22.4878 171.917 22.4878C173.17 22.4878 173.743 23.2017 173.743 24.6128V30H175.81V24.1313C175.81 21.9731 174.706 20.7529 172.68 20.7529C171.369 20.7529 170.497 21.3423 170.065 22.3135H169.924V20.9272H167.857V30ZM178.333 30H180.4V24.7124C180.4 23.3511 181.164 22.4878 182.392 22.4878C183.646 22.4878 184.218 23.2017 184.218 24.6128V30H186.285V24.1313C186.285 21.9731 185.181 20.7529 183.156 20.7529C181.844 20.7529 180.973 21.3423 180.541 22.3135H180.4V17.416H178.333V30ZM191.73 30.1826C193.042 30.1826 193.963 29.5933 194.387 28.6221H194.528V30H196.595V20.9272H194.528V26.2148C194.528 27.5762 193.814 28.4395 192.478 28.4395C191.232 28.4395 190.709 27.7256 190.709 26.3228V20.9272H188.643V26.7959C188.643 28.9541 189.688 30.1826 191.73 30.1826ZM204.165 30.1494C206.439 30.1494 207.892 28.3481 207.892 25.4761V25.4595C207.892 22.5708 206.464 20.7778 204.165 20.7778C202.92 20.7778 201.882 21.3921 201.409 22.3716H201.268V17.416H199.201V30H201.268V28.5806H201.409C201.907 29.5684 202.895 30.1494 204.165 30.1494ZM203.518 28.4062C202.115 28.4062 201.243 27.2939 201.243 25.4761V25.4595C201.243 23.6416 202.115 22.521 203.518 22.521C204.929 22.521 205.784 23.6333 205.784 25.4595V25.4761C205.784 27.3022 204.929 28.4062 203.518 28.4062Z" fill="black"/>
<g filter="url(#filter0_d_4_1000)">
<mask id="mask0_4_1000" style="mask-type:alpha" maskUnits="userSpaceOnUse" x="40" y="13" width="25" height="22">
<path d="M48.1302 13.0298C48.173 13.0102 48.2195 13 48.2666 13H55.7683C55.8155 13 55.862 13.0102 55.9049 13.0298L61.6408 15.3599C61.7001 15.3871 61.7501 15.4311 61.7848 15.4864L63.9818 20.0453C64.0606 20.1709 64.0511 20.3326 63.9583 20.4482L52.2745 34.8764C52.2121 34.9545 52.1175 35 52.0176 35C51.9176 35 51.823 34.9545 51.7606 34.8764L40.0767 20.4482C39.9838 20.3327 39.9744 20.1709 40.0532 20.0453L42.2503 15.4751C42.285 15.4199 42.335 15.376 42.3943 15.3487L48.1302 13.0298Z" fill="white"/>
</mask>
<g mask="url(#mask0_4_1000)">
<path d="M64.0341 18.3098H52.0166V34.9131H64.0341V18.3098Z" fill="#2A92F2"/>
<path d="M52.0175 18.3098H40V34.9131H52.0175V18.3098Z" fill="#4795F1"/>
<path d="M64.0345 13H40V19.321H64.0345V13Z" fill="#86C5FF"/>
<path d="M52.0176 17.366L56.6067 22.9566H47.4902L52.0176 17.366Z" fill="#8BC0FF"/>
<path d="M52.0173 38.2L56.6067 22.9568H47.4902L52.0173 38.2Z" fill="#ADD3FF"/>
<path d="M52.0182 17.3658L43.0962 16.329L47.4907 22.9567L52.0182 17.3658Z" fill="#D3E0FF"/>
<path d="M40 20.1637L43.0957 16.329L47.4902 22.9567L40 20.1637Z" fill="#9FBAFF"/>
<path d="M40 20.1639L43.0957 16.329L42.3424 15.3599C41.8295 15.4255 40.9347 17.9433 40 20.1639Z" fill="#7498F8"/>
<path d="M52.0176 17.3658L60.7845 16.329L56.6066 22.9567L52.0176 17.3658Z" fill="#4C99F3"/>
<path d="M64.0347 20.1641L60.7849 16.3292L56.6069 22.9569L64.0347 20.1641Z" fill="#96C7FF"/>
<path d="M64.0345 20.1639L60.7847 16.329L61.6404 15.3599C62.3611 15.8252 63.3225 18.166 64.0345 20.1639Z" fill="#4481FD"/>
<path d="M45.9102 20.7116C45.8877 20.6557 45.9722 20.5973 46.0146 20.6396C46.4219 21.0461 47.2522 21.8009 47.8486 21.8533C48.4341 21.9048 49.4378 21.3362 49.9628 21.0075C50.0145 20.9752 50.088 21.0583 50.0516 21.1078C49.7377 21.5342 49.2376 22.308 49.1793 22.977C49.1167 23.696 49.528 24.7091 49.754 25.2024C49.7788 25.2565 49.7018 25.315 49.6579 25.2756C49.2192 24.8826 48.2709 24.0954 47.6581 24.0415C47.0405 23.9872 46.0472 24.6147 45.5959 24.9268C45.5482 24.9597 45.4812 24.896 45.5106 24.8455C45.7712 24.3971 46.2821 23.4394 46.344 22.7278C46.4025 22.0567 46.0986 21.1793 45.9102 20.7116Z" fill="white"/>
</g>
</g>
<defs>
<filter id="filter0_d_4_1000" x="-100" y="-124" width="304.035" height="302" filterUnits="userSpaceOnUse" color-interpolation-filters="sRGB">
<feFlood flood-opacity="0" result="BackgroundImageFix"/>
<feColorMatrix in="SourceAlpha" type="matrix" values="0 0 0 0 0 0 0 0 0 0 0 0 0 0 0 0 0 0 127 0" result="hardAlpha"/>
<feOffset dy="3"/>
<feGaussianBlur stdDeviation="70"/>
<feColorMatrix type="matrix" values="0 0 0 0 0 0 0 0 0 0 0 0 0 0 0 0 0 0 0.5 0"/>
<feBlend mode="normal" in2="BackgroundImageFix" result="effect1_dropShadow_4_1000"/>
<feBlend mode="normal" in="SourceGraphic" in2="effect1_dropShadow_4_1000" result="shape"/>
</filter>
</defs>
</svg>
